<?xml version="1.0" encoding="UTF-8"?>
<svg width="800" height="600" viewBox="0 0 800 600" fill="none" xmlns="http://www.w3.org/2000/svg">
  <rect width="800" height="600" fill="#F3F4F6"/>
  <g>
    <rect x="220" y="100" width="360" height="400" rx="24" fill="white" stroke="#3B82F6" stroke-width="4"/>
    <rect x="260" y="150" width="280" height="24" rx="6" fill="#3B82F6" fill-opacity="0.15"/>
    <rect x="260" y="190" width="200" height="16" rx="4" fill="#3B82F6" fill-opacity="0.10"/>
    <rect x="260" y="220" width="240" height="16" rx="4" fill="#3B82F6" fill-opacity="0.10"/>
    <rect x="260" y="250" width="180" height="16" rx="4" fill="#3B82F6" fill-opacity="0.10"/>
    <rect x="260" y="300" width="200" height="16" rx="4" fill="#3B82F6" fill-opacity="0.10"/>
    <rect x="260" y="330" width="240" height="16" rx="4" fill="#3B82F6" fill-opacity="0.10"/>
    <rect x="260" y="360" width="180" height="16" rx="4" fill="#3B82F6" fill-opacity="0.10"/>
    <circle cx="600" cy="180" r="36" fill="#3B82F6" fill-opacity="0.15"/>
    <rect x="590" y="170" width="20" height="20" rx="4" fill="#3B82F6"/>
    <path d="M600 180l7 7" stroke="#3B82F6" stroke-width="2" stroke-linecap="round"/>
    <circle cx="260" cy="150" r="8" fill="#3B82F6"/>
    <rect x="260" y="400" width="120" height="32" rx="8" fill="#3B82F6" fill-opacity="0.15"/>
    <rect x="400" y="400" width="80" height="32" rx="8" fill="#10B981" fill-opacity="0.15"/>
    <rect x="260" y="450" width="220" height="12" rx="4" fill="#3B82F6" fill-opacity="0.10"/>
    <rect x="260" y="470" width="180" height="12" rx="4" fill="#3B82F6" fill-opacity="0.10"/>
    <rect x="260" y="490" width="200" height="12" rx="4" fill="#3B82F6" fill-opacity="0.10"/>
    <!-- Checkmark for ATS success -->
    <circle cx="540" cy="420" r="18" fill="#10B981" fill-opacity="0.2"/>
    <path d="M532 420l6 6 12-12" stroke="#10B981" stroke-width="3" stroke-linecap="round" stroke-linejoin="round"/>
  </g>
</svg>